HIERARCHY
ROOT Hips
{
 OFFSET 0.000000 0.000000 0.000000
 CHANNELS 6 Xposition Yposition Zposition Yrotation Xrotation Zrotation
 JOINT Chest
 {
  OFFSET 0.000000 9.588913 -0.003946
  CHANNELS 3 Yrotation Xrotation Zrotation
  JOINT Chest2
  {
   OFFSET 0.000000 9.541882 0.008053
   CHANNELS 3 Yrotation Xrotation Zrotation
   JOINT Chest3
   {
    OFFSET 0.000000 9.501360 0.000000
    CHANNELS 3 Yrotation Xrotation Zrotation
    JOINT Chest4
    {
     OFFSET 0.000000 9.491660 0.000000
     CHANNELS 3 Yrotation Xrotation Zrotation
     JOINT Neck
     {
      OFFSET 0.000000 14.331917 0.000000
      CHANNELS 3 Yrotation Xrotation Zrotation
      JOINT Head
      {
       OFFSET 0.000000 8.884799 0.017034
       CHANNELS 3 Yrotation Xrotation Zrotation
       End Site
       {
        OFFSET 0.000000 16.896195 0.008993
       }
      }
     }
     JOINT RightCollar
     {
      OFFSET -2.923010 9.499495 0.000000
      CHANNELS 3 Yrotation Xrotation Zrotation
      JOINT RightShoulder
      {
       OFFSET -13.795216 0.000000 0.000000
       CHANNELS 3 Yrotation Xrotation Zrotation
       JOINT RightElbow
       {
        OFFSET -30.272209 0.000000 0.000000
        CHANNELS 3 Yrotation Xrotation Zrotation
        JOINT RightWrist
        {
         OFFSET -24.478199 0.000000 0.000000
         CHANNELS 3 Yrotation Xrotation Zrotation
         End Site
         {
          OFFSET -18.090752 0.000000 0.000000
         }
        }
       }
      }
     }
     JOINT LeftCollar
     {
      OFFSET 2.923010 9.499495 0.000000
      CHANNELS 3 Yrotation Xrotation Zrotation
      JOINT LeftShoulder
      {
       OFFSET 13.795216 0.000000 0.000000
       CHANNELS 3 Yrotation Xrotation Zrotation
       JOINT LeftElbow
       {
        OFFSET 30.272209 0.000000 0.000000
        CHANNELS 3 Yrotation Xrotation Zrotation
        JOINT LeftWrist
        {
         OFFSET 24.478199 0.000000 0.000000
         CHANNELS 3 Yrotation Xrotation Zrotation
         End Site
         {
          OFFSET 18.090752 0.000000 0.000000
         }
        }
       }
      }
     }
    }
   }
  }
 }
 JOINT RightHip
 {
  OFFSET -7.826875 0.019532 0.001973
  CHANNELS 3 Yrotation Xrotation Zrotation
  JOINT RightKnee
  {
   OFFSET 0.000000 -40.546152 -0.001885
   CHANNELS 3 Yrotation Xrotation Zrotation
   JOINT RightAnkle
   {
    OFFSET 0.000000 -39.417092 -0.003189
    CHANNELS 3 Yrotation Xrotation Zrotation
    JOINT RightToe
    {
     OFFSET 0.000000 -7.579396 17.243563
     CHANNELS 3 Yrotation Xrotation Zrotation
     End Site
     {
      OFFSET 0.000000 -1.500329 6.694466
     }
    }
   }
  }
 }
 JOINT LeftHip
 {
  OFFSET 7.826875 0.019532 0.001973
  CHANNELS 3 Yrotation Xrotation Zrotation
  JOINT LeftKnee
  {
   OFFSET 0.000000 -40.546152 -0.001885
   CHANNELS 3 Yrotation Xrotation Zrotation
   JOINT LeftAnkle
   {
    OFFSET 0.000000 -39.417092 -0.003189
    CHANNELS 3 Yrotation Xrotation Zrotation
    JOINT LeftToe
    {
     OFFSET 0.000000 -7.579396 17.243563
     CHANNELS 3 Yrotation Xrotation Zrotation
     End Site
     {
      OFFSET 0.000000 -1.500329 6.694466
     }
    }
   }
  }
 }
}
MOTION
Frames: 15
Frame Time: 0.008333
218.526281 89.201560 -160.257254 46.572819 -6.697365 -3.750867 -0.173785 3.862677 1.075537 -0.049532 2.279075 0.553859 -0.058483 2.848910 0.692152 -0.049535 2.279074 0.553858 -8.557609 24.210120 2.324090 -10.050954 1.012300 4.551321 -2.140487 3.995659 -4.973650 -3.918770 -3.168677 88.380728 2.281393 -1.503207 0.302421 0.939803 -3.400038 -2.183545 1.034678 -0.078120 -4.197510 6.250589 -4.703139 -80.819804 3.056838 1.160585 3.789009 -4.005326 2.289491 4.412570 -15.748086 2.457123 -10.907379 0.707644 15.299863 -1.097610 2.200300 -7.629954 6.931698 0.100211 0.203944 2.416344 9.510331 3.708430 9.542597 3.920955 16.259625 4.171295 4.516147 -8.888100 -9.292318 -0.092810 -0.061542 -0.183013
218.420037 89.201399 -160.187450 45.921427 -6.694915 -3.719801 -0.178805 3.839182 1.060015 -0.044921 2.270576 0.542825 -0.052798 2.838277 0.678386 -0.044923 2.270574 0.542825 -8.523458 24.211169 2.309567 -10.007620 1.008573 4.526701 -2.176828 4.012168 -4.971324 -3.945749 -3.167498 88.522145 2.214004 -1.410680 0.230458 0.843849 -3.374776 -2.197387 1.025381 -0.047084 -4.167232 6.050111 -4.604464 -81.084167 3.145381 1.247513 3.888141 -4.017371 2.302388 4.466580 -16.386745 2.268693 -11.176470 0.604982 15.224244 -1.148961 2.003621 -7.416761 6.362503 0.096379 0.250940 2.541169 9.766632 3.970034 9.550704 4.164866 15.842390 4.250601 4.677582 -8.742924 -9.354097 -0.131170 -0.068444 -0.208863
218.311458 89.197112 -160.116073 45.240990 -6.706179 -3.663907 -0.169274 3.822992 1.028889 -0.037419 2.263044 0.531461 -0.043501 2.828849 0.664224 -0.037422 2.263041 0.531460 -8.495728 24.210967 2.290943 -9.970676 1.003796 4.499066 -2.205882 4.031499 -4.958146 -3.963547 -3.173124 88.680305 2.147303 -1.307523 0.149249 0.812605 -3.363494 -2.250972 1.024110 -0.016064 -4.136131 5.853502 -4.499844 -81.365413 3.200085 1.333687 3.952697 -4.050002 2.311309 4.512891 -17.028365 2.067625 -11.443169 0.500518 15.135105 -1.206592 1.817661 -7.197214 5.787156 0.097915 0.301605 2.621500 10.023727 4.260201 9.539999 4.423400 15.408736 4.323830 4.839301 -8.618531 -9.419097 -0.160792 -0.051753 -0.228734
218.197598 89.188385 -160.043122 44.540366 -6.714869 -3.595306 -0.157576 3.802000 0.989532 -0.027723 2.256514 0.520442 -0.031455 2.820673 0.650508 -0.027725 2.256512 0.520442 -8.473800 24.206788 2.265853 -9.938731 0.994372 4.465617 -2.224345 4.047615 -4.937285 -3.968849 -3.179269 88.858218 2.085425 -1.204997 0.061927 0.838496 -3.366204 -2.331925 1.030751 0.012334 -4.107297 5.675355 -4.394186 -81.658967 3.223421 1.426291 3.981217 -4.097287 2.315940 4.552609 -17.672250 1.842228 -11.684441 0.374111 15.040469 -1.279775 1.645024 -6.993475 5.212619 0.102518 0.363274 2.660748 10.276000 4.561872 9.516929 4.713433 14.956649 4.399643 4.995329 -8.490719 -9.490065 -0.192699 -0.033374 -0.244744
218.078260 89.175152 -159.967095 43.820379 -6.721919 -3.518465 -0.143873 3.778530 0.945960 -0.017580 2.249625 0.509720 -0.018850 2.812047 0.637164 -0.017582 2.249623 0.509719 -8.455071 24.200178 2.234087 -9.908739 0.981893 4.425488 -2.230185 4.063996 -4.909178 -3.954979 -3.187804 89.052799 2.027082 -1.116789 -0.024207 0.912286 -3.380984 -2.427250 1.048947 0.040975 -4.079594 5.521340 -4.288129 -81.958936 3.215975 1.527851 3.968376 -4.154892 2.317505 4.588948 -18.314692 1.598238 -11.895693 0.212252 14.939669 -1.370155 1.491370 -6.803496 4.655867 0.108196 0.427492 2.653287 10.531108 4.875500 9.485763 5.036624 14.484725 4.484260 5.136455 -8.361354 -9.574578 -0.224644 -0.012077 -0.254585
217.953876 89.157450 -159.885479 43.086516 -6.733984 -3.438008 -0.124174 3.758738 0.902808 -0.007219 2.241630 0.499505 -0.005971 2.802039 0.624456 -0.007222 2.241627 0.499504 -8.441601 24.195018 2.198916 -9.884012 0.971608 4.382849 -2.233071 4.086534 -4.872912 -3.914841 -3.203124 89.259603 1.972062 -1.056746 -0.102707 1.023786 -3.400736 -2.523197 1.071641 0.074536 -4.051305 5.393961 -4.183721 -82.261383 3.179671 1.634646 3.910881 -4.216470 2.315145 4.620991 -18.962600 1.348027 -12.077346 0.009427 14.830689 -1.475555 1.360282 -6.622223 4.129276 0.112695 0.485489 2.597674 10.802580 5.207245 9.458172 5.375629 13.991339 4.571368 5.258294 -8.233464 -9.674433 -0.249603 0.013867 -0.256717
217.824367 89.135258 -159.796000 42.339208 -6.755145 -3.357519 -0.096066 3.747147 0.861908 0.003649 2.232932 0.490119 0.007548 2.791152 0.612787 0.003646 2.232929 0.490118 -8.432778 24.193755 2.162711 -9.864503 0.966602 4.340203 -2.237424 4.115214 -4.829612 -3.844726 -3.226216 89.478450 1.924984 -1.032866 -0.171484 1.152030 -3.419051 -2.608864 1.094483 0.112593 -4.020362 5.287622 -4.081545 -82.560805 3.118186 1.740574 3.809028 -4.280866 2.303511 4.637974 -19.618844 1.100590 -12.226074 -0.236190 14.711084 -1.600643 1.251340 -6.441647 3.645798 0.114330 0.528446 2.495754 11.105255 5.560165 9.446530 5.705057 13.476971 4.649050 5.366163 -8.109191 -9.787241 -0.262792 0.045094 -0.251502
217.688597 89.108403 -159.697438 41.578357 -6.782313 -3.280012 -0.066010 3.740159 0.823807 0.012717 2.223330 0.481526 0.018820 2.779139 0.602098 0.012714 2.223328 0.481525 -8.421541 24.199486 2.125113 -9.842013 0.969839 4.295431 -2.227977 4.151316 -4.782719 -3.748277 -3.256136 89.710339 1.887937 -1.042278 -0.227769 1.277646 -3.436947 -2.676414 1.128288 0.154407 -3.989070 5.169344 -3.978307 -82.850897 3.036905 1.816126 3.666682 -4.346995 2.285200 4.639221 -20.278361 0.857431 -12.335699 -0.526517 14.580463 -1.752728 1.159753 -6.249816 3.224180 0.111968 0.546200 2.347140 11.432489 5.927578 9.455363 6.016146 12.950383 4.713644 5.469505 -7.989506 -9.911662 -0.264561 0.079189 -0.241576
217.546214 89.076909 -159.587679 40.802883 -6.822497 -3.208262 -0.033428 3.741390 0.790412 0.019207 2.213339 0.473249 0.026871 2.766642 0.591787 0.019204 2.213338 0.473248 -8.406633 24.213832 2.086506 -9.815228 0.983209 4.248660 -2.202466 4.194415 -4.733862 -3.631540 -3.290652 89.956424 1.855780 -1.072638 -0.270705 1.393297 -3.456158 -2.719598 1.175927 0.199050 -3.954917 5.028046 -3.870949 -83.126948 2.939805 1.850029 3.489890 -4.412830 2.264917 4.622786 -20.932807 0.626996 -12.406628 -0.864024 14.443561 -1.934309 1.082401 -6.031105 2.877384 0.103622 0.526867 2.154566 11.766162 6.309821 9.485386 6.318909 12.426420 4.768840 5.559846 -7.901784 -10.055348 -0.234874 0.136068 -0.219755
217.392810 89.039914 -159.470787 40.010959 -6.841580 -3.139613 0.005864 3.713273 0.759795 0.025614 2.204949 0.465980 0.034827 2.756147 0.582737 0.025612 2.204947 0.465980 -8.393607 24.233996 2.046319 -9.790373 1.003879 4.200601 -2.177116 4.238732 -4.686890 -3.498252 -3.328113 90.219928 1.824149 -1.108477 -0.300039 1.489585 -3.472343 -2.738395 1.225217 0.242111 -3.920391 4.870914 -3.756743 -83.389113 2.826189 1.854369 3.284388 -4.475909 2.236096 4.593322 -21.579179 0.357424 -12.429329 -1.240366 14.324977 -2.143641 1.012123 -5.768343 2.603790 0.090392 0.460353 1.928782 12.094025 6.666738 9.526287 6.617795 11.921060 4.813856 5.686902 -7.791173 -10.202229 -0.223681 0.164160 -0.207644
217.233087 88.998251 -159.340218 39.236557 -6.889979 -3.075809 0.023605 3.706577 0.728711 0.033498 2.199285 0.460708 0.044645 2.749057 0.576192 0.033496 2.199282 0.460707 -8.384585 24.257956 2.005723 -9.770150 1.029679 4.153074 -2.159564 4.281055 -4.643776 -3.356698 -3.368376 90.503374 1.793253 -1.136036 -0.315099 1.554710 -3.478680 -2.736378 1.266751 0.279903 -3.892881 4.703563 -3.636511 -83.638249 2.695479 1.841280 3.059507 -4.534144 2.197282 4.563946 -22.249134 0.122964 -12.439906 -1.640261 14.205185 -2.369547 0.956046 -5.459943 2.409021 0.053552 0.352450 1.675864 12.392734 7.043184 9.588784 6.906559 11.443963 4.848301 5.829218 -7.686325 -10.357446 -0.210977 0.185665 -0.196806
217.063048 88.951297 -159.198301 38.467553 -6.947013 -3.018088 0.035133 3.700240 0.698448 0.041828 2.195519 0.456820 0.055032 2.744340 0.571381 0.041827 2.195517 0.456820 -8.377788 24.287730 1.968284 -9.753455 1.063125 4.109626 -2.150699 4.322556 -4.601531 -3.217682 -3.409990 90.809824 1.760636 -1.140046 -0.318458 1.593025 -3.472070 -2.714724 1.300822 0.313877 -3.870611 4.546109 -3.514615 -83.872454 2.549661 1.836520 2.819177 -4.587620 2.158755 4.531494 -22.903989 -0.103285 -12.425425 -2.069747 14.095599 -2.609457 0.896548 -5.081611 2.280974 0.003172 0.196335 1.409631 12.683743 7.412124 9.670349 7.178445 10.998732 4.881125 5.978375 -7.588599 -10.523590 -0.200174 0.202581 -0.188435
216.881229 88.898748 -159.045288 37.705675 -7.010061 -2.965642 0.044800 3.693464 0.670030 0.049482 2.191812 0.454000 0.064579 2.739697 0.567899 0.049481 2.191810 0.453999 -8.375164 24.325915 1.933051 -9.742356 1.107580 4.069663 -2.156669 4.365334 -4.563084 -3.081253 -3.448668 91.141530 1.719888 -1.101614 -0.325528 1.620946 -3.464206 -2.656721 1.327990 0.346570 -3.852952 4.401473 -3.392774 -84.097094 2.393326 1.848632 2.574814 -4.636958 2.125145 4.489405 -23.510835 -0.325950 -12.385290 -2.541673 14.012424 -2.865933 0.824968 -4.629071 2.220272 -0.056531 -0.006254 1.135796 12.964122 7.768493 9.769603 7.439969 10.591184 4.915632 6.130098 -7.501670 -10.705470 -0.188185 0.217148 -0.179871
216.687227 88.840364 -158.881018 36.949624 -7.080455 -2.912781 0.054564 3.688990 0.642949 0.057348 2.187266 0.451155 0.074390 2.734005 0.564388 0.057346 2.187263 0.451154 -8.381613 24.371936 1.898726 -9.742181 1.162828 4.032914 -2.181122 4.411580 -4.532093 -2.946605 -3.482507 91.499785 1.675428 -1.013972 -0.365727 1.650874 -3.508004 -2.528823 1.345326 0.374613 -3.840780 4.261164 -3.269082 -84.315172 2.231977 1.871977 2.334451 -4.683281 2.098002 4.436700 -24.062940 -0.543348 -12.329336 -3.041487 13.954189 -3.132417 0.738856 -4.105065 2.224090 -0.123929 -0.243254 0.857858 13.224722 8.112613 9.882562 7.709855 10.229784 4.949818 6.278807 -7.428804 -10.904488 -0.172259 0.229279 -0.169035
216.479854 88.775633 -158.707222 36.187665 -7.144957 -2.848223 0.076040 3.672271 0.609141 0.065433 2.181832 0.446452 0.084464 2.727204 0.558555 0.065431 2.181830 0.446451 -8.398634 24.423971 1.867672 -9.755222 1.226959 4.002371 -2.220935 4.463105 -4.505217 -2.814836 -3.510741 91.883742 1.642157 -0.911933 -0.453043 1.740516 -3.685240 -2.366190 1.354303 0.394568 -3.832833 4.119766 -3.141147 -84.520131 2.066493 1.907313 2.098856 -4.722280 2.082175 4.376948 -24.457916 -0.775146 -12.268551 -3.620139 13.956878 -3.393828 0.624681 -3.519133 2.285490 -0.199297 -0.513078 0.578505 13.468503 8.428209 9.993805 7.992043 9.925900 4.990238 6.424911 -7.370939 -11.126927 -0.149095 0.235730 -0.154415
